Format                           : AVI
Format/Info                      : Audio Video Interleave
File size                        : 721 MiB
Duration                         : 1h 21mn
Overall bit rate                 : 1 231 Kbps
Writing library                  : VirtualDub build 32842/release

Video
ID                               : 0
Format                           : MPEG-4 Visual
Format profile                   : Advanced Simple@L5
Format settings, BVOP            : 2
Format settings, QPel            : No
Format settings, GMC             : No warppoints
Format settings, Matrix          : Default (H.263)
Muxing mode                      : Packed bitstream
Codec ID                         : XVID
Codec ID/Hint                    : XviD
Duration                         : 1h 21mn
Bit rate                         : 1 094 Kbps
Width                            : 624 pixels
Height                           : 262 pixels
Display aspect ratio             : 2.40:1
Frame rate                       : 25.000 fps
Color space                      : YUV
Chroma subsampling               : 4:2:0
Bit depth                        : 8 bits
Scan type                        : Progressive
Compression mode                 : Lossy
Bits/(Pixel*Frame)               : 0.268
Stream size                      : 641 MiB (89%)
Writing library                  : XviD 64

Audio
ID                               : 1
Format                           : MPEG Audio
Format version                   : Version 1
Format profile                   : Layer 3
Mode                             : Joint stereo
Mode extension                   : MS Stereo
Codec ID                         : 55
Codec ID/Hint                    : MP3
Duration                         : 1h 21mn
Bit rate mode                    : Constant
Bit rate                         : 128 Kbps
Channel(s)                       : 2 channels
Sampling rate                    : 44.1 KHz
Compression mode                 : Lossy
Stream size                      : 75.0 MiB (10%)
Alignment                        : Split accross interleaves
Interleave, duration             : 40 ms (1.00 video frame)
Writing library                  : LAME3.98r
Encoding settings                : -m j -V 4 -q 2 -lowpass 17 -b 128

Screens: 
http://images.oneddl.com/images/prhl9297b0iotbg9qex.png 
http://images.oneddl.com/images/jhpjh4gsx4m7wmqgy51o.png 
http://images.oneddl.com/images/xz9r6h7iouy5nxffp2f.png 
http://images.oneddl.com/images/9ujc9pzl5w8kofubwu4l.png
copy paste the links.

Sample: 
http://www.uploadking.com/FES3MR9XI4